<?xml version="1.0" encoding="utf-8"?>
<!-- Generator: Adobe Illustrator 19.2.0, SVG Export Plug-In . SVG Version: 6.00 Build 0)  -->
<svg version="1.1" id="Layer_1" xmlns="http://www.w3.org/2000/svg" xmlns:xlink="http://www.w3.org/1999/xlink" x="0px" y="0px"
	 viewBox="150 350 928.3 628.4" style="enable-background:new 0 0 1228.3 1228.4;" xml:space="preserve">
<style type="text/css">
	.st0{fill:#231F20;}
	.st1{fill:#E28B35;}
	.st2{fill:#6B4098;}
	.st3{fill:#0E8443;}
	.st4{fill:#70174C;}
</style>
<g>
	<g>
		<path class="st0" d="M451.6,613.8c-4.7-4.7-8.4-10.1-11-16.2c-2.7-6.4-4.1-13-4.1-19.9c0-14.2,5-26.3,15.1-36.3
			c4.8-4.7,10.3-8.4,16.4-11c6.4-2.7,13-4.1,20.1-4.1c14.2,0,26.3,5,36.4,15.1c4.7,4.7,8.4,10.2,11,16.3c2.7,6.4,4.1,13,4.1,20
			c0,2.4-0.8,4.4-2.5,6c-1.7,1.7-3.7,2.5-6.1,2.5h-76.5c1.9,7.4,6,13.5,12.2,18.3c6.2,4.8,13.3,7.3,21.3,7.3
			c12.6,0,22.3-3.8,29.2-11.5c1.5-1.8,3.4-2.7,5.8-2.8c2.4-0.1,4.4,0.6,6.2,2.1c1.8,1.6,2.7,3.5,2.8,5.9c0.1,2.3-0.6,4.3-2.2,6.1
			c-10.2,11.5-24.1,17.3-41.8,17.3C473.9,628.8,461.7,623.8,451.6,613.8 M521.5,569.2c-1.9-7.5-6-13.7-12.1-18.5
			c-6.3-4.9-13.4-7.4-21.3-7.4c-8,0-15.1,2.5-21.4,7.4c-6.1,4.8-10.1,11-12.1,18.5H521.5z"/>
		<path class="st0" d="M603.6,526.4c13.9,0,25.7,5,35.6,15.1c9.8,10,14.7,22.1,14.7,36.2c0,14.1-4.9,26.2-14.7,36.1
			c-9.9,10-21.7,15-35.6,15c-12.7,0-23.9-4.3-33.4-12.9v4.4c0,2.4-0.8,4.4-2.5,6c-1.7,1.6-3.7,2.5-6,2.5c-2.4,0-4.4-0.8-6.1-2.5
			c-1.6-1.6-2.5-3.6-2.5-6V500.2c0-2.4,0.8-4.4,2.5-6c1.7-1.7,3.7-2.5,6.1-2.5c2.3,0,4.3,0.8,6,2.5c1.6,1.6,2.5,3.6,2.5,6v39.1
			C579.8,530.7,590.9,526.4,603.6,526.4 M603.6,611.8c9.2,0,17.1-3.3,23.6-10c6.5-6.7,9.7-14.8,9.7-24.2c0-9.4-3.2-17.5-9.7-24.2
			c-6.5-6.7-14.4-10-23.6-10c-9.2,0-17.1,3.3-23.6,10c-6.5,6.7-9.8,14.8-9.8,24.2c0,9.4,3.3,17.4,9.8,24.2
			C586.6,608.5,594.4,611.8,603.6,611.8"/>
		<path class="st0" d="M678.8,491.7c2.3,0,4.3,0.8,6,2.5c1.6,1.6,2.5,3.6,2.5,6v120.2c0,2.4-0.8,4.4-2.5,6c-1.7,1.6-3.7,2.5-6,2.5
			c-2.4,0-4.4-0.8-6.1-2.5c-1.6-1.6-2.5-3.6-2.5-6V500.2c0-2.4,0.8-4.4,2.5-6C674.4,492.5,676.5,491.7,678.8,491.7"/>
		<path class="st0" d="M753.1,526.4c13.9,0,25.7,5,35.6,15.1c9.9,10,14.8,22.1,14.8,36.2c0,14.1-4.9,26.2-14.8,36.1
			c-9.9,10-21.7,15-35.6,15c-13.9,0-25.8-5-35.6-15c-9.9-10-14.8-22-14.8-36.1c0-14.2,4.9-26.2,14.8-36.2
			C727.3,531.4,739.2,526.4,753.1,526.4 M753.1,611.8c9.2,0,17.1-3.3,23.6-10c6.5-6.7,9.8-14.8,9.8-24.2c0-9.4-3.3-17.5-9.8-24.2
			c-6.5-6.7-14.4-10-23.6-10c-9.2,0-17.1,3.3-23.6,10c-6.5,6.7-9.8,14.8-9.8,24.2c0,9.4,3.3,17.4,9.8,24.2
			C736.1,608.5,743.9,611.8,753.1,611.8"/>
		<path class="st0" d="M861.2,526.4c13.9,0,25.7,5,35.6,15.1c9.9,10,14.8,22.1,14.8,36.2c0,14.1-4.9,26.2-14.8,36.1
			c-9.9,10-21.7,15-35.6,15c-13.9,0-25.8-5-35.6-15c-9.9-10-14.8-22-14.8-36.1c0-14.2,4.9-26.2,14.8-36.2
			C835.4,531.4,847.3,526.4,861.2,526.4 M861.2,611.8c9.2,0,17.1-3.3,23.6-10c6.5-6.7,9.8-14.8,9.8-24.2c0-9.4-3.3-17.5-9.8-24.2
			c-6.5-6.7-14.4-10-23.6-10c-9.2,0-17.1,3.3-23.6,10c-6.5,6.7-9.8,14.8-9.8,24.2c0,9.4,3.3,17.4,9.8,24.2
			C844.1,608.5,852,611.8,861.2,611.8"/>
		<path class="st0" d="M1043.1,526.4c12.4,0,23,5,31.8,15.1c8.8,10,13.2,22.1,13.2,36.2v42.7c0,2.3-0.8,4.3-2.4,6
			c-1.7,1.6-3.7,2.5-6,2.5c-2.4,0-4.4-0.8-6.1-2.5c-1.6-1.7-2.5-3.7-2.5-6v-42.7c0-9.4-2.7-17.5-8.2-24.2c-5.5-6.7-12.1-10-19.8-10
			c-7.7,0-14.3,3.3-19.8,10c-5.5,6.7-8.2,14.8-8.2,24.2v42.8c0,2.3-0.8,4.3-2.5,6c-1.7,1.6-3.7,2.5-6,2.5c-2.4,0-4.4-0.8-6.1-2.5
			c-1.6-1.7-2.5-3.7-2.5-6v-42.8c0-9.4-2.7-17.4-8.2-24.2c-5.5-6.7-12.1-10-19.8-10c-7.7,0-14.3,3.3-19.8,10
			c-5.4,6.7-8.2,14.8-8.2,24.2v42.7c0,2.4-0.8,4.4-2.4,6c-1.7,1.6-3.7,2.5-6,2.5c-2.4,0-4.4-0.8-6.1-2.5c-1.6-1.6-2.5-3.6-2.5-6
			v-85.5c0-2.4,0.8-4.4,2.5-6c1.7-1.7,3.7-2.5,6.1-2.5c2.3,0,4.3,0.8,6,2.5c1.6,1.6,2.4,3.6,2.4,6v2.6c8.2-7.4,17.6-11.2,28-11.2
			c15.3,0,27.5,7.1,36.5,21.3C1015.6,533.5,1027.8,526.4,1043.1,526.4"/>
		<path class="st0" d="M455.6,677.9c-0.8,0-2.1,0.1-2.8,0.2c-3.5,0.7-4.9,2.9-4.9,7.5v3.5h7.7v3.6h-7.7V718h-3.8v-32.7
			c0-3.1,0.7-5.5,2.1-7.3c1.6-2,3.6-3.1,7.1-3.4c0.4-0.1,1.7-0.1,2.2-0.1V677.9z"/>
		<rect x="468.9" y="674.6" class="st0" width="3.8" height="43.3"/>
		<path class="st0" d="M502.6,718.5c-8.1,0-14.7-6.8-14.7-14.9c0-8.4,6.6-15.1,14.9-15.1c8.3,0,14.9,6.6,14.9,15.1
			C517.8,711.9,511.2,718.5,502.6,718.5 M502.9,692.1c-6,0-11,5.1-11,11.4c0,6.1,5,11.3,10.9,11.3c6.2,0,11.2-5,11.2-11.2
			C513.9,697.2,508.9,692.1,502.9,692.1"/>
		<path class="st0" d="M572.1,704.9c0,4.7-0.4,7-2.1,9.3c-1.8,2.7-5,4.5-8.7,4.5c-3.7,0-6.7-1.7-9.2-5.1c-2,3.3-5.3,5.1-9.2,5.1
			c-3.3,0-6.6-1.6-8.5-4.3c-1.7-2.4-2.3-4.6-2.3-9.2v-16.1h3.8v15.4c0,4.8,0.9,10.5,7.2,10.5c2.3,0,4.5-1.2,5.6-3
			c1.2-1.7,1.5-3.8,1.5-7v-15.9h3.8v15.8c0,2.9,0.2,4.9,1.2,6.6c1.2,2.2,3.5,3.5,6,3.5c2.8,0,5.3-1.8,6.3-4.2c0.7-1.6,0.9-3.3,0.9-6
			v-15.7h3.8V704.9z"/>
		<path class="st0" d="M590.1,705.1c0.7,5.5,5.2,9.8,10.9,9.8c3.5,0,6.6-1.4,8.8-4.4l3,2.2c-3,4-7.3,5.8-11.9,5.8
			c-2.1,0-4.1-0.4-6-1.3c-5.3-2.3-8.9-7.6-8.9-13.7c0-8.3,6.6-15.1,15-15.1c4.8,0,9.3,2.3,12,6.1c2.4,3.4,2.9,6.4,2.9,10.4H590.1z
			 M601,692.1c-5.5,0-10,4.1-10.9,9.6h21.8C611.2,696.2,606.5,692.1,601,692.1"/>
		<path class="st0" d="M642.2,692.6c-5.8,0-7.3,2.6-7.3,8.1V718h-3.8v-17.6c0-3.6,0.8-6.3,2.5-8.3c1.9-2.1,4.4-3,8.5-3h1.4v3.5
			H642.2z"/>
		<path class="st0" d="M671.2,690.2l-1.1,3.2c-2.5-1.2-4-1.6-6-1.6c-3,0-5.5,1.9-5.5,4.5c0,2.3,1.4,3.6,4.7,4.8
			c3.8,1.4,6,2.9,7.2,5.5c1.5,3.3,0.6,7.3-1.9,9.5c-1.7,1.5-4,2.4-6.7,2.4c-2.4,0-5.3-0.7-8.1-2.3l1.3-3.2c2.3,1.3,4.2,2.1,6.5,2.1
			c1.8,0,3.5-0.6,4.6-1.9c2.1-2.4,1.9-5.8-1.7-7.6c-0.7-0.4-2.3-0.9-4.7-2.1c-3.5-1.6-5-3.8-5-7.1c0-4.7,3.9-8.1,9.5-8.1
			C666.2,688.5,669.4,689.2,671.2,690.2"/>
		<path class="st0" d="M750.6,704.9c0,4.7-0.4,7-2.1,9.3c-1.8,2.7-5,4.5-8.7,4.5c-3.7,0-6.7-1.7-9.2-5.1c-2,3.3-5.3,5.1-9.2,5.1
			c-3.3,0-6.6-1.6-8.5-4.3c-1.7-2.4-2.3-4.6-2.3-9.2v-16.1h3.8v15.4c0,4.8,0.9,10.5,7.2,10.5c2.3,0,4.5-1.2,5.6-3
			c1.2-1.7,1.5-3.8,1.5-7v-15.9h3.8v15.8c0,2.9,0.2,4.9,1.2,6.6c1.2,2.2,3.4,3.5,6,3.5c2.8,0,5.3-1.8,6.3-4.2c0.7-1.6,0.9-3.3,0.9-6
			v-15.7h3.8V704.9z"/>
		<path class="st0" d="M768.9,683c-1.4,0-2.5-1-2.5-2.4c0-1.3,1.2-2.5,2.5-2.5c1.4,0,2.5,1.1,2.5,2.5C771.4,682,770.3,683,768.9,683
			 M767,689.1h3.8V718H767V689.1z"/>
		<path class="st0" d="M799.4,718c-4.1,0-6.5-0.9-8.5-3c-1.7-1.9-2.5-4.7-2.5-8.3v-26.8h3.8v9.3h7.6v3.6h-7.6l-0.1,13.6
			c0,5.5,1.6,8.2,7.3,8.2h0.4v3.5H799.4z"/>
		<path class="st0" d="M834.5,717.9v-14.4c0-3.8-0.4-5.6-1.5-7.5c-1.5-2.4-4.1-4-7.2-4c-3.2,0-5.8,1.6-7.3,4.2
			c-0.9,1.7-1.3,3-1.3,5.9v15.8h-3.8v-43.2h3.8v17.9c2.2-2.6,5.8-4.1,8.5-4.1c4.3,0,8.4,2.2,10.6,5.7c1.3,2.3,1.8,4.9,1.8,8.9v14.8
			H834.5z"/>
		<path class="st0" d="M903,718v-5.4c-2.8,4-6.5,5.9-11.2,5.9c-8.3,0-14.9-6.6-14.9-14.9c0-8.5,6.6-15.1,14.9-15.1
			c5.3,0,10.1,2.7,12.8,7.2c1.7,2.9,2.1,5.2,2.1,10.2V718H903z M892,692.1c-6.3,0-11.3,5.1-11.3,11.4c0,6.3,5.1,11.3,11.2,11.3
			c6.1,0,11.1-5,11.1-11.1C903,697.2,898.1,692.1,892,692.1"/>
		<path class="st0" d="M960.1,718.5c-8,0-14.6-6.8-14.6-14.9c0-8.4,6.6-15.1,14.9-15.1c2.7,0,5.1,0.6,7.3,1.9l-1.8,3.3
			c-1.7-1.1-3.5-1.6-5.6-1.6c-6,0-11,5.1-11,11.4c0,6.1,5.1,11.3,10.9,11.3c2.2,0,4.2-0.6,5.9-1.7l1.8,3.3
			C965.6,717.7,963,718.5,960.1,718.5"/>
		<rect x="981.8" y="674.6" class="st0" width="3.8" height="43.3"/>
		<path class="st0" d="M1005.1,683c-1.4,0-2.5-1-2.5-2.4c0-1.3,1.2-2.5,2.5-2.5c1.4,0,2.5,1.1,2.5,2.5
			C1007.6,682,1006.5,683,1005.1,683 M1003.2,689.1h3.8V718h-3.8V689.1z"/>
		<path class="st0" d="M1036.7,718.5c-8,0-14.6-6.8-14.6-14.9c0-8.4,6.6-15.1,14.9-15.1c2.7,0,5.1,0.6,7.3,1.9l-1.8,3.3
			c-1.7-1.1-3.5-1.6-5.6-1.6c-6,0-11,5.1-11,11.4c0,6.1,5.1,11.3,10.9,11.3c2.2,0,4.2-0.6,5.9-1.7l1.8,3.3
			C1042.2,717.7,1039.6,718.5,1036.7,718.5"/>
		<path class="st0" d="M1061.6,702.7l14-13.5h4.8l-11.2,11h0.8c0.3,0,0.6,0,0.8,0.1c3.5,0.3,6.5,2.4,8.2,5.3
			c1.1,1.9,1.5,4.3,1.5,7.7v4.8h-3.8v-4.5c0-3-0.2-4.8-1.2-6.5c-1.3-2.3-3.6-3.9-6.3-3.9c-4.8,0-7.6,4.5-7.6,9.2v5.7h-3.8v-43.3h3.8
			V702.7z"/>
	</g>
	<g>
		<path class="st1" d="M228,654.2c0,16.3-13.2,29.5-29.5,29.5c-16.3,0-29.5-13.2-29.5-29.5c0-16.3,13.2-29.5,29.5-29.5
			C214.8,624.7,228,637.9,228,654.2"/>
		<path class="st2" d="M224.1,544.7c0,30.4-24.6,55-55,55c-30.4,0-55-24.6-55-55c0-30.4,24.6-55,55-55
			C199.4,489.7,224.1,514.3,224.1,544.7"/>
		<path class="st3" d="M314,628.6c-30.4,0-55,24.6-55,55c0,30.4,24.6,55,55,55h55v-55C369.1,653.3,344.4,628.6,314,628.6"/>
		<path class="st4" d="M314,489.7c-30.4,0-55,24.6-55,55c0,30.4,24.6,55,55,55c30.4,0,55-24.6,55-55v-55H314z"/>
	</g>
</g>
</svg>
